<svg width="173" height="51" viewBox="0 0 173 51" fill="none" xmlns="http://www.w3.org/2000/svg">
<g clip-path="url(#clip0_1_1354)">
<g clip-path="url(#clip1_1_1354)">
<path d="M43.2343 24.3656H22.2757V26.3378H43.2343V24.3656Z" fill="#EE3E38"/>
<path d="M43.2343 28.0161H22.2757V29.9872H43.2343V28.0161Z" fill="#EE3E38"/>
<path d="M43.2343 32.0583H22.2757V34.0311H43.2343V32.0583Z" fill="#EE3E38"/>
<path d="M43.2349 6.56555H41.2692V18.795H43.2349V6.56555Z" fill="#EE3E38"/>
<path d="M38.8068 11.2989H36.8411V18.795H38.8068V11.2989Z" fill="#EE3E38"/>
<path d="M34.3787 15.7367H32.413V18.795H34.3787V15.7367Z" fill="#EE3E38"/>
<path d="M23.3423 6.67332V12.2344H28.8902C28.6102 9.28444 26.2853 6.95777 23.3423 6.67332Z" fill="#EE3E38"/>
<path d="M28.8901 13.4183H23.0457L18.8515 17.6205C19.9192 18.4939 21.2651 19.04 22.7519 19.04C25.9737 19.04 28.5902 16.5689 28.8901 13.4183Z" fill="#EE3E38"/>
<path d="M22.161 6.67332C19.0173 6.97555 16.5527 9.59832 16.5527 12.8261C16.5527 14.3417 17.1142 15.7111 18.0128 16.7894L22.161 12.6305V6.67332Z" fill="#EE3E38"/>
<path d="M44.8397 0.5H14.9295C12.4339 0.5 10.4011 2.53722 10.4011 5.03833V26.0456C10.4183 26.0456 10.4338 26.0433 10.451 26.0433C10.7254 26.0433 10.9954 26.0606 11.2637 26.0844C10.9954 26.0622 10.7254 26.0433 10.451 26.0433C5.15258 26.0433 0.856415 30.3478 0.856415 35.6583C0.856415 40.9689 5.15258 45.2739 10.451 45.2739C10.7248 45.2739 10.9937 45.2556 11.2614 45.2328C10.9942 45.2572 10.7248 45.2739 10.451 45.2739C10.4338 45.2739 10.4183 45.2717 10.4011 45.2717V45.9617C10.4011 48.4633 12.4339 50.5 14.9295 50.5H36.1825C37.1676 50.5 38.095 50.1322 39.1067 49.2811C40.1189 48.4294 47.3475 41.0244 48.0859 40.1094C49.173 38.7644 49.3687 37.9756 49.3687 36.6939V5.03833C49.3692 2.53722 47.3381 0.5 44.8397 0.5ZM12.0092 26.1817C11.8657 26.1578 11.7227 26.1322 11.5774 26.1156C11.7227 26.1333 11.8662 26.1572 12.0092 26.1817ZM8.4548 40.6056L4.32716 36.4689L6.83168 33.9589L8.50802 35.6389L14.2904 30.085L16.7428 32.6483L8.4548 40.6056ZM11.5796 45.2017C11.716 45.1856 11.8502 45.1617 11.9849 45.14C11.8507 45.1622 11.716 45.1844 11.5796 45.2017ZM14.9295 48.1333C13.7349 48.1333 12.7626 47.1589 12.7626 45.9617V44.9811C12.7593 44.9817 12.756 44.9822 12.7532 44.9833C16.9379 43.9483 20.045 40.1717 20.045 35.6583C20.045 31.1422 16.9351 27.3644 12.7471 26.3322C12.7521 26.3333 12.7576 26.3344 12.7626 26.3356V5.03833C12.7626 3.84111 13.7344 2.86667 14.9295 2.86667H44.8397C46.0354 2.86667 47.0066 3.84056 47.0066 5.03833L47.0166 37.3911C46.9628 37.6167 46.7777 37.9556 46.4966 38.3722H40.9088C39.0612 38.3722 37.5606 39.8744 37.5606 41.7267V47.5811C37.1604 47.8706 36.8333 48.0644 36.6066 48.1333H14.9295Z" fill="#EE3E38"/>
</g>
</g>
<g clip-path="url(#clip2_1_1354)">
<g clip-path="url(#clip3_1_1354)">
<path d="M171.015 37.2108H60.4521C59.829 37.2108 59.3239 37.717 59.3239 38.3415V39.0728C59.3239 39.6973 59.829 40.2035 60.4521 40.2035H171.015C171.639 40.2035 172.144 39.6973 172.144 39.0728V38.3415C172.144 37.717 171.639 37.2108 171.015 37.2108Z" fill="#EE3E38"/>
<g clip-path="url(#clip4_1_1354)">
<g clip-path="url(#clip5_1_1354)">
<path d="M67.6783 24.2194C69.1741 24.2194 70.4456 23.6633 71.4926 22.5511C72.5445 21.4388 73.0705 19.6617 73.0705 17.2196C73.0705 14.8985 72.5276 13.1939 71.442 12.1058C70.3563 11.0178 69.1621 10.4738 67.8593 10.4738C66.3393 10.4738 65.0799 11.0831 64.0811 12.3017C63.0775 13.5251 62.5757 15.2732 62.5757 17.546C62.5757 19.5287 63.0582 21.1366 64.0232 22.3697C64.9883 23.6028 66.2066 24.2194 67.6783 24.2194ZM73.0705 10.9452V0.898952H75.9294V26.5406H73.0705V23.8204C71.7677 25.8273 69.8858 26.8307 67.425 26.8307C64.9883 26.8307 63.0775 25.924 61.6926 24.1106C60.303 22.2972 59.6082 20.0969 59.6082 17.5098C59.6082 14.6325 60.344 12.3041 61.8157 10.5245C63.2874 8.7498 65.1813 7.86244 67.4974 7.86244C69.8858 7.86244 71.7435 8.89004 73.0705 10.9452ZM91.0926 20.4112V18.0538H87.908C86.3639 18.0538 85.2059 18.356 84.4338 18.9605C83.6618 19.565 83.2758 20.3266 83.2758 21.2454C83.2758 22.1642 83.5774 22.9065 84.1805 23.4723C84.7837 24.0429 85.6643 24.3282 86.8223 24.3282C88.1251 24.3282 89.1625 23.9583 89.9346 23.2184C90.7066 22.4834 91.0926 21.5476 91.0926 20.4112ZM81.6111 11.997V9.13183C82.9863 8.28557 84.7957 7.86244 87.0395 7.86244C91.6475 7.86244 93.9516 10.2078 93.9516 14.8985V26.5406H91.1288V24.3645C90.1879 25.9361 88.475 26.7219 85.99 26.7219C84.277 26.7219 82.8946 26.2141 81.8427 25.1986C80.7956 24.1831 80.2721 22.9016 80.2721 21.3542C80.2721 19.5892 80.9404 18.2158 82.277 17.2341C83.6184 16.2573 85.4471 15.7689 87.7632 15.7689H91.0926V14.8259C91.0926 13.3752 90.7669 12.2799 90.1155 11.54C89.4641 10.805 88.3664 10.4375 86.8223 10.4375C84.8681 10.4375 83.131 10.9573 81.6111 11.997ZM108.029 10.4738H102.963V21.2454C102.963 23.2039 103.879 24.1831 105.713 24.1831C106.654 24.1831 107.486 23.9051 108.21 23.349V26.0691C107.414 26.5043 106.521 26.7219 105.532 26.7219C101.913 26.7219 100.104 24.8722 100.104 21.1729V10.4738H97.1724V8.15259H100.104V3.5828H102.963V8.15259H108.029V10.4738ZM122.244 20.4112V18.0538H119.06C117.515 18.0538 116.357 18.356 115.585 18.9605C114.813 19.565 114.427 20.3266 114.427 21.2454C114.427 22.1642 114.729 22.9065 115.332 23.4723C115.935 24.0429 116.816 24.3282 117.974 24.3282C119.277 24.3282 120.314 23.9583 121.086 23.2184C121.858 22.4834 122.244 21.5476 122.244 20.4112ZM112.763 11.997V9.13183C114.138 8.28557 115.947 7.86244 118.191 7.86244C122.799 7.86244 125.103 10.2078 125.103 14.8985V26.5406H122.28V24.3645C121.339 25.9361 119.626 26.7219 117.142 26.7219C115.429 26.7219 114.049 26.2141 113.001 25.1986C111.95 24.1831 111.424 22.9016 111.424 21.3542C111.424 19.5892 112.094 18.2158 113.436 17.2341C114.772 16.2573 116.599 15.7689 118.915 15.7689H122.244V14.8259C122.244 13.3752 121.918 12.2799 121.267 11.54C120.616 10.805 119.518 10.4375 117.974 10.4375C116.02 10.4375 114.283 10.9573 112.763 11.997ZM138.24 24.2194C139.784 24.2194 141.05 23.6077 142.04 22.3842C143.029 21.1656 143.523 19.432 143.523 17.1834C143.523 15.1765 143.041 13.5565 142.076 12.3234C141.111 11.0903 139.892 10.4738 138.421 10.4738C136.949 10.4738 135.678 11.0105 134.606 12.0841C133.53 13.1624 132.992 14.9226 132.992 17.3647C132.992 19.71 133.535 21.4388 134.621 22.5511C135.706 23.6633 136.913 24.2194 138.24 24.2194ZM130.17 8.15259H132.992V10.9452C134.271 8.89004 136.165 7.86244 138.674 7.86244C141.111 7.86244 143.024 8.7498 144.414 10.5245C145.798 12.3041 146.491 14.5237 146.491 17.1834C146.491 20.0123 145.762 22.3262 144.305 24.1251C142.843 25.9288 140.942 26.8307 138.602 26.8307C136.189 26.8307 134.319 25.8031 132.992 23.7479V33.6854H130.17V8.15259ZM153.692 26.5406H150.834V8.15259H153.692V26.5406ZM150.92 3.70611C150.573 3.35793 150.399 2.91788 150.399 2.38595C150.399 1.85401 150.573 1.4067 150.92 1.04402C151.273 0.681341 151.714 0.5 152.245 0.5C152.776 0.5 153.222 0.681341 153.584 1.04402C153.946 1.4067 154.127 1.85401 154.127 2.38595C154.127 2.91788 153.946 3.35793 153.584 3.70611C153.222 4.05912 152.776 4.23562 152.245 4.23562C151.714 4.23562 151.273 4.05912 150.92 3.70611ZM169 20.4112V18.0538H165.816C164.272 18.0538 163.114 18.356 162.342 18.9605C161.57 19.565 161.184 20.3266 161.184 21.2454C161.184 22.1642 161.485 22.9065 162.088 23.4723C162.691 24.0429 163.572 24.3282 164.73 24.3282C166.033 24.3282 167.07 23.9583 167.842 23.2184C168.614 22.4834 169 21.5476 169 20.4112ZM159.519 11.997V9.13183C160.894 8.28557 162.704 7.86244 164.947 7.86244C169.555 7.86244 171.859 10.2078 171.859 14.8985V26.5406H169.037V24.3645C168.096 25.9361 166.383 26.7219 163.898 26.7219C162.185 26.7219 160.802 26.2141 159.75 25.1986C158.703 24.1831 158.18 22.9016 158.18 21.3542C158.18 19.5892 158.848 18.2158 160.185 17.2341C161.526 16.2573 163.355 15.7689 165.671 15.7689H169V14.8259C169 13.3752 168.675 12.2799 168.023 11.54C167.372 10.805 166.274 10.4375 164.73 10.4375C162.776 10.4375 161.039 10.9573 159.519 11.997Z" fill="#EE3E38"/>
</g>
</g>
<g clip-path="url(#clip6_1_1354)">
<g clip-path="url(#clip7_1_1354)">
<path d="M84.6175 45.5886C84.9279 45.5886 85.1859 45.6973 85.3912 45.9146C85.5966 46.1329 85.6993 46.4335 85.6993 46.8165V49.0639H85.2121V47.0319C85.2121 46.6777 85.1453 46.4225 85.0115 46.2665C84.8778 46.1114 84.7034 46.0338 84.4885 46.0338C84.2258 46.0338 84.0218 46.1353 83.8766 46.3383C83.7305 46.5422 83.6454 46.8189 83.6216 47.1683V49.0639H83.1344V47.0319C83.1344 46.6777 83.0675 46.4225 82.9338 46.2665C82.8 46.1114 82.6257 46.0338 82.4107 46.0338C82.1194 46.0338 81.9011 46.1559 81.7559 46.4C81.6097 46.6442 81.5366 46.9721 81.5366 47.3837V49.0639H81.0494V45.7035H81.5366V46.2277C81.6465 46.0219 81.786 45.8639 81.9551 45.7538C82.1251 45.6437 82.32 45.5886 82.5397 45.5886C82.7833 45.5886 82.9958 45.6542 83.1774 45.7854C83.3589 45.9175 83.4854 46.1056 83.5571 46.3498C83.6622 46.1104 83.8055 45.9237 83.987 45.7897C84.1685 45.6557 84.3786 45.5886 84.6175 45.5886ZM89.1957 45.7035H89.6829V49.0639H89.1957V48.5685C89.0572 48.76 88.8876 48.9093 88.687 49.0165C88.4864 49.1247 88.2667 49.1788 88.0278 49.1788C87.7078 49.1788 87.4212 49.1022 87.1681 48.949C86.9149 48.7959 86.7167 48.5828 86.5734 48.31C86.4301 48.0371 86.3585 47.726 86.3585 47.3765C86.3585 47.0319 86.4287 46.7241 86.5691 46.4532C86.7105 46.1832 86.9063 45.9716 87.1566 45.8184C87.4079 45.6652 87.6935 45.5886 88.0135 45.5886C88.2571 45.5886 88.4802 45.6423 88.6827 45.7495C88.8862 45.8577 89.0572 46.0099 89.1957 46.2062V45.7035ZM88.0135 48.7336C88.2428 48.7336 88.4467 48.6762 88.6254 48.5613C88.805 48.4464 88.9449 48.2861 89.0452 48.0802C89.1455 47.8744 89.1957 47.6422 89.1957 47.3837C89.1957 47.1252 89.1455 46.8931 89.0452 46.6872C88.9449 46.4814 88.805 46.321 88.6254 46.2062C88.4467 46.0913 88.2428 46.0338 88.0135 46.0338C87.789 46.0338 87.5884 46.0913 87.4117 46.2062C87.235 46.321 87.0964 46.4804 86.9961 46.6844C86.8958 46.8873 86.8457 47.1181 86.8457 47.3765C86.8457 47.6398 86.8958 47.8744 86.9961 48.0802C87.0964 48.2861 87.235 48.4464 87.4117 48.5613C87.5884 48.6762 87.789 48.7336 88.0135 48.7336ZM93.2008 49.0639H92.6562L91.4812 47.3335L91.0714 47.7284V49.0639H90.5856V43.851H91.0714V47.1109L92.5402 45.7035H93.1721L91.818 47.0104L93.2008 49.0639ZM95.1553 45.5886C95.4562 45.5886 95.7285 45.6628 95.9721 45.8112C96.2157 45.9596 96.4067 46.1616 96.5452 46.4173C96.6838 46.6738 96.753 46.9601 96.753 47.276C96.753 47.367 96.7506 47.4364 96.7458 47.4843H93.9874C94.0065 47.8289 94.1188 48.1233 94.3242 48.3674C94.5296 48.6116 94.809 48.7336 95.1624 48.7336C95.449 48.7336 95.6869 48.6795 95.8761 48.5714C96.0642 48.4641 96.2157 48.3148 96.3303 48.1233L96.7172 48.3818C96.5596 48.6307 96.3518 48.8255 96.0939 48.9663C95.8359 49.108 95.5302 49.1788 95.1768 49.1788C94.852 49.1788 94.563 49.1022 94.3099 48.949C94.0567 48.7959 93.8585 48.5828 93.7152 48.31C93.5719 48.0371 93.5002 47.7284 93.5002 47.3837C93.5002 47.0391 93.5709 46.7303 93.7123 46.4575C93.8527 46.1846 94.0486 45.9716 94.2998 45.8184C94.5501 45.6652 94.8353 45.5886 95.1553 45.5886ZM94.0161 47.0822H96.2658C96.218 46.7327 96.101 46.4704 95.9147 46.2952C95.7285 46.1209 95.4753 46.0338 95.1553 46.0338C94.8448 46.0338 94.5907 46.1329 94.393 46.3311C94.1943 46.5302 94.0686 46.7806 94.0161 47.0822ZM101.697 43.851H102.184V49.0639H101.697V48.5685C101.558 48.76 101.389 48.9093 101.188 49.0165C100.987 49.1247 100.768 49.1788 100.529 49.1788C100.209 49.1788 99.9222 49.1022 99.669 48.949C99.4159 48.7959 99.2177 48.5828 99.0744 48.31C98.9311 48.0371 98.8594 47.726 98.8594 47.3765C98.8594 47.0319 98.9296 46.7241 99.0701 46.4532C99.2115 46.1832 99.4073 45.9716 99.6576 45.8184C99.9088 45.6652 100.194 45.5886 100.514 45.5886C100.758 45.5886 100.981 45.6423 101.184 45.7495C101.387 45.8577 101.558 46.0099 101.697 46.2062V43.851ZM100.514 48.7336C100.744 48.7336 100.948 48.6762 101.126 48.5613C101.306 48.4464 101.446 48.2861 101.546 48.0802C101.646 47.8744 101.697 47.6422 101.697 47.3837C101.697 47.1252 101.646 46.8931 101.546 46.6872C101.446 46.4814 101.306 46.321 101.126 46.2062C100.948 46.0913 100.744 46.0338 100.514 46.0338C100.29 46.0338 100.089 46.0913 99.9126 46.2062C99.7359 46.321 99.5974 46.4804 99.4971 46.6844C99.3968 46.8873 99.3466 47.1181 99.3466 47.3765C99.3466 47.6398 99.3968 47.8744 99.4971 48.0802C99.5974 48.2861 99.7359 48.4464 99.9126 48.5613C100.089 48.6762 100.29 48.7336 100.514 48.7336ZM105.716 45.7035H106.203V49.0639H105.716V48.5685C105.578 48.76 105.408 48.9093 105.207 49.0165C105.007 49.1247 104.787 49.1788 104.548 49.1788C104.228 49.1788 103.942 49.1022 103.688 48.949C103.435 48.7959 103.237 48.5828 103.094 48.31C102.95 48.0371 102.879 47.726 102.879 47.3765C102.879 47.0319 102.949 46.7241 103.089 46.4532C103.231 46.1832 103.427 45.9716 103.677 45.8184C103.928 45.6652 104.214 45.5886 104.534 45.5886C104.777 45.5886 105.001 45.6423 105.203 45.7495C105.407 45.8577 105.578 46.0099 105.716 46.2062V45.7035ZM104.534 48.7336C104.763 48.7336 104.967 48.6762 105.146 48.5613C105.325 48.4464 105.465 48.2861 105.566 48.0802C105.666 47.8744 105.716 47.6422 105.716 47.3837C105.716 47.1252 105.666 46.8931 105.566 46.6872C105.465 46.4814 105.325 46.321 105.146 46.2062C104.967 46.0913 104.763 46.0338 104.534 46.0338C104.309 46.0338 104.109 46.0913 103.932 46.2062C103.755 46.321 103.617 46.4804 103.516 46.6844C103.416 46.8873 103.366 47.1181 103.366 47.3765C103.366 47.6398 103.416 47.8744 103.516 48.0802C103.617 48.2861 103.755 48.4464 103.932 48.5613C104.109 48.6762 104.309 48.7336 104.534 48.7336ZM107.771 49.0639H107.284V46.1487H106.711V45.7035H107.284V44.5906H107.771V45.7035H108.545V46.1487H107.771V49.0639ZM111.704 45.7035H112.191V49.0639H111.704V48.5685C111.566 48.76 111.396 48.9093 111.196 49.0165C110.995 49.1247 110.775 49.1788 110.536 49.1788C110.216 49.1788 109.93 49.1022 109.677 48.949C109.424 48.7959 109.225 48.5828 109.082 48.31C108.939 48.0371 108.867 47.726 108.867 47.3765C108.867 47.0319 108.938 46.7241 109.079 46.4532C109.22 46.1832 109.415 45.9716 109.667 45.8184C109.917 45.6652 110.202 45.5886 110.522 45.5886C110.766 45.5886 110.989 45.6423 111.193 45.7495C111.395 45.8577 111.566 46.0099 111.704 46.2062V45.7035ZM110.522 48.7336C110.751 48.7336 110.956 48.6762 111.135 48.5613C111.314 48.4464 111.454 48.2861 111.554 48.0802C111.654 47.8744 111.704 47.6422 111.704 47.3837C111.704 47.1252 111.654 46.8931 111.554 46.6872C111.454 46.4814 111.314 46.321 111.135 46.2062C110.956 46.0913 110.751 46.0338 110.522 46.0338C110.298 46.0338 110.097 46.0913 109.92 46.2062C109.744 46.321 109.605 46.4804 109.505 46.6844C109.404 46.8873 109.354 47.1181 109.354 47.3765C109.354 47.6398 109.404 47.8744 109.505 48.0802C109.605 48.2861 109.744 48.4464 109.92 48.5613C110.097 48.6762 110.298 48.7336 110.522 48.7336ZM117.923 48.3603L118.776 45.7035H119.242L118.153 49.0639H117.644L116.827 46.4862L115.946 49.0639H115.459L114.355 45.7035H114.871L115.731 48.3746L116.605 45.7035H117.078L117.923 48.3603ZM121.16 49.1788C120.84 49.1788 120.554 49.1022 120.3 48.949C120.047 48.7959 119.849 48.5814 119.706 48.3057C119.563 48.0309 119.491 47.7212 119.491 47.3765C119.491 47.0319 119.562 46.7241 119.703 46.4532C119.843 46.1832 120.039 45.9716 120.29 45.8184C120.541 45.6652 120.826 45.5886 121.146 45.5886C121.466 45.5886 121.753 45.6652 122.006 45.8184C122.259 45.9716 122.457 46.1846 122.6 46.4575C122.744 46.7303 122.815 47.0391 122.815 47.3837C122.815 47.7284 122.745 48.0371 122.605 48.31C122.463 48.5828 122.267 48.7959 122.017 48.949C121.766 49.1022 121.48 49.1788 121.16 49.1788ZM121.146 48.7336C121.375 48.7336 121.58 48.6762 121.759 48.5613C121.938 48.4464 122.077 48.2861 122.178 48.0802C122.278 47.8744 122.328 47.6422 122.328 47.3837C122.328 47.1252 122.278 46.8931 122.178 46.6872C122.077 46.4814 121.938 46.321 121.759 46.2062C121.58 46.0913 121.375 46.0338 121.146 46.0338C120.921 46.0338 120.721 46.0913 120.544 46.2062C120.367 46.321 120.229 46.4804 120.129 46.6844C120.028 46.8873 119.978 47.1181 119.978 47.3765C119.978 47.6398 120.028 47.8744 120.129 48.0802C120.229 48.2861 120.367 48.4464 120.544 48.5613C120.721 48.6762 120.921 48.7336 121.146 48.7336ZM125.151 45.5886C125.266 45.5886 125.375 45.6054 125.481 45.6389V46.0841C125.38 46.0362 125.27 46.0123 125.151 46.0123C124.946 46.0123 124.755 46.0697 124.578 46.1846C124.401 46.2995 124.259 46.4661 124.152 46.6844C124.044 46.9017 123.99 47.1587 123.99 47.4555V49.0639H123.503V45.7035H123.99V46.3785C124.119 46.1296 124.283 45.9357 124.482 45.7969C124.68 45.6581 124.903 45.5886 125.151 45.5886ZM128.547 49.0639H128.003L126.828 47.3335L126.419 47.7284V49.0639H125.932V43.851H126.419V47.1109L127.888 45.7035H128.518L127.164 47.0104L128.547 49.0639ZM131.892 44.1741C131.724 44.1741 131.587 44.2316 131.48 44.3464C131.372 44.4613 131.318 44.6097 131.318 44.7916V45.7035H132.092V46.1487H131.318V49.0639H130.831V46.1487H130.401V45.7035H130.831V44.7916C130.831 44.4805 130.931 44.2253 131.129 44.0262C131.327 43.828 131.581 43.7289 131.892 43.7289H132.092V44.1741H131.892ZM134.084 49.1788C133.764 49.1788 133.477 49.1022 133.224 48.949C132.971 48.7959 132.773 48.5814 132.629 48.3057C132.486 48.0309 132.415 47.7212 132.415 47.3765C132.415 47.0319 132.485 46.7241 132.627 46.4532C132.767 46.1832 132.963 45.9716 133.214 45.8184C133.464 45.6652 133.75 45.5886 134.07 45.5886C134.39 45.5886 134.676 45.6652 134.929 45.8184C135.183 45.9716 135.381 46.1846 135.524 46.4575C135.667 46.7303 135.739 47.0391 135.739 47.3837C135.739 47.7284 135.669 48.0371 135.528 48.31C135.387 48.5828 135.191 48.7959 134.941 48.949C134.69 49.1022 134.404 49.1788 134.084 49.1788ZM134.07 48.7336C134.299 48.7336 134.503 48.6762 134.683 48.5613C134.862 48.4464 135.001 48.2861 135.101 48.0802C135.202 47.8744 135.252 47.6422 135.252 47.3837C135.252 47.1252 135.202 46.8931 135.101 46.6872C135.001 46.4814 134.862 46.321 134.683 46.2062C134.503 46.0913 134.299 46.0338 134.07 46.0338C133.845 46.0338 133.644 46.0913 133.468 46.2062C133.291 46.321 133.153 46.4804 133.052 46.6844C132.952 46.8873 132.902 47.1181 132.902 47.3765C132.902 47.6398 132.952 47.8744 133.052 48.0802C133.153 48.2861 133.291 48.4464 133.468 48.5613C133.644 48.6762 133.845 48.7336 134.07 48.7336ZM138.075 45.5886C138.189 45.5886 138.299 45.6054 138.404 45.6389V46.0841C138.304 46.0362 138.194 46.0123 138.075 46.0123C137.869 46.0123 137.678 46.0697 137.501 46.1846C137.325 46.2995 137.182 46.4661 137.074 46.6844C136.967 46.9017 136.914 47.1587 136.914 47.4555V49.0639H136.427V45.7035H136.914V46.3785C137.043 46.1296 137.206 45.9357 137.404 45.7969C137.603 45.6581 137.826 45.5886 138.075 45.5886ZM141.691 48.4895L142.759 45.7035H143.217L141.405 50.5H140.918L141.448 49.1286L140.072 45.7035H140.581L141.691 48.4895ZM145.13 49.1788C144.81 49.1788 144.524 49.1022 144.271 48.949C144.018 48.7959 143.819 48.5814 143.676 48.3057C143.533 48.0309 143.461 47.7212 143.461 47.3765C143.461 47.0319 143.532 46.7241 143.673 46.4532C143.814 46.1832 144.009 45.9716 144.261 45.8184C144.511 45.6652 144.796 45.5886 145.116 45.5886C145.436 45.5886 145.723 45.6652 145.976 45.8184C146.229 45.9716 146.427 46.1846 146.571 46.4575C146.714 46.7303 146.785 47.0391 146.785 47.3837C146.785 47.7284 146.715 48.0371 146.575 48.31C146.433 48.5828 146.238 48.7959 145.987 48.949C145.736 49.1022 145.45 49.1788 145.13 49.1788ZM145.116 48.7336C145.345 48.7336 145.55 48.6762 145.729 48.5613C145.908 48.4464 146.048 48.2861 146.148 48.0802C146.248 47.8744 146.298 47.6422 146.298 47.3837C146.298 47.1252 146.248 46.8931 146.148 46.6872C146.048 46.4814 145.908 46.321 145.729 46.2062C145.55 46.0913 145.345 46.0338 145.116 46.0338C144.892 46.0338 144.691 46.0913 144.514 46.2062C144.338 46.321 144.199 46.4804 144.099 46.6844C143.998 46.8873 143.948 47.1181 143.948 47.3765C143.948 47.6398 143.998 47.8744 144.099 48.0802C144.199 48.2861 144.338 48.4464 144.514 48.5613C144.691 48.6762 144.892 48.7336 145.116 48.7336ZM149.931 45.7035H150.418V49.0639H149.931V48.5039C149.816 48.7193 149.664 48.8854 149.475 49.0022C149.287 49.1199 149.069 49.1788 148.82 49.1788C148.586 49.1788 148.37 49.131 148.171 49.0352C147.973 48.9395 147.816 48.7983 147.698 48.6116C147.582 48.4249 147.523 48.2047 147.523 47.951V45.7035H148.011V47.7356C148.011 48.4009 148.307 48.7336 148.899 48.7336C149.243 48.7336 149.501 48.6116 149.673 48.3674C149.845 48.1233 149.931 47.7954 149.931 47.3837V45.7035Z" fill="#EE3E38"/>
</g>
</g>
</g>
</g>
<defs>
<clipPath id="clip0_1_1354">
<rect width="48.5123" height="50" fill="white" transform="translate(0.856445 0.5)"/>
</clipPath>
<clipPath id="clip1_1_1354">
<rect width="48.5123" height="50" fill="white" transform="translate(0.856445 0.5)"/>
</clipPath>
<clipPath id="clip2_1_1354">
<rect width="112.82" height="50" fill="white" transform="translate(59.3239 0.5)"/>
</clipPath>
<clipPath id="clip3_1_1354">
<rect width="112.82" height="50" fill="white" transform="translate(59.3239 0.5)"/>
</clipPath>
<clipPath id="clip4_1_1354">
<rect width="112.258" height="33.1854" fill="white" transform="translate(59.6046 0.5)"/>
</clipPath>
<clipPath id="clip5_1_1354">
<rect width="112.258" height="33.1854" fill="white" transform="translate(59.6046 0.5)"/>
</clipPath>
<clipPath id="clip6_1_1354">
<rect width="69.3757" height="6.77108" fill="white" transform="translate(81.0459 43.7289)"/>
</clipPath>
<clipPath id="clip7_1_1354">
<rect width="69.3757" height="6.77108" fill="white" transform="translate(81.0459 43.7289)"/>
</clipPath>
</defs>
</svg>
