<svg width="32" height="33" viewBox="0 0 32 33" fill="none" xmlns="http://www.w3.org/2000/svg">
<path d="M27.9783 15.774H14.5648V17.0362H27.9783V15.774Z" fill="#EE3E38"/>
<path d="M27.9783 18.1103H14.5648V19.3718H27.9783V18.1103Z" fill="#EE3E38"/>
<path d="M27.9783 20.6973H14.5648V21.9599H27.9783V20.6973Z" fill="#EE3E38"/>
<path d="M27.9786 4.38196H26.7206V12.2088H27.9786V4.38196Z" fill="#EE3E38"/>
<path d="M25.1446 7.41129H23.8866V12.2088H25.1446V7.41129Z" fill="#EE3E38"/>
<path d="M22.3107 10.2515H21.0526V12.2088H22.3107V10.2515Z" fill="#EE3E38"/>
<path d="M15.2474 4.45094V8.01005H18.7981C18.6189 6.12205 17.131 4.63298 15.2474 4.45094Z" fill="#EE3E38"/>
<path d="M18.798 8.76773H15.0576L12.3733 11.4572C13.0566 12.0161 13.918 12.3656 14.8695 12.3656C16.9315 12.3656 18.6061 10.7841 18.798 8.76773Z" fill="#EE3E38"/>
<path d="M14.4914 4.45094C12.4795 4.64436 10.9021 6.32294 10.9021 8.38871C10.9021 9.35867 11.2615 10.2351 11.8366 10.9252L14.4914 8.26356V4.45094Z" fill="#EE3E38"/>
<path d="M29.0057 0.500008H9.86324C8.26602 0.500008 6.96504 1.80383 6.96504 3.40454V16.8492C6.97604 16.8492 6.98598 16.8477 6.99697 16.8477C7.17259 16.8477 7.34537 16.8588 7.51708 16.8741C7.34537 16.8598 7.17259 16.8477 6.99697 16.8477C3.60599 16.8477 0.856445 19.6026 0.856445 23.0013C0.856445 26.4001 3.60599 29.1553 6.99697 29.1553C7.17224 29.1553 7.3443 29.1436 7.51566 29.129C7.34466 29.1446 7.17224 29.1553 6.99697 29.1553C6.98598 29.1553 6.97604 29.1539 6.96504 29.1539V29.5955C6.96504 31.1965 8.26602 32.5 9.86324 32.5H23.4651C24.0956 32.5 24.6891 32.2646 25.3366 31.7199C25.9844 31.1749 30.6108 26.4356 31.0833 25.85C31.7791 24.9893 31.9043 24.4844 31.9043 23.6641V3.40454C31.9046 1.80383 30.6047 0.500008 29.0057 0.500008ZM7.99426 16.9363C7.90237 16.921 7.81084 16.9046 7.71789 16.894C7.81084 16.9053 7.90273 16.9206 7.99426 16.9363ZM5.71941 26.1676L3.07772 23.5201L4.68062 21.9137L5.75347 22.9889L9.45418 19.4344L11.0237 21.0749L5.71941 26.1676ZM7.71931 29.1091C7.80658 29.0988 7.89244 29.0835 7.97865 29.0696C7.89279 29.0838 7.80658 29.098 7.71931 29.1091ZM9.86324 30.9853C9.09869 30.9853 8.47641 30.3617 8.47641 29.5955V28.9679C8.47428 28.9683 8.47215 28.9686 8.47037 28.9693C11.1486 28.3069 13.1371 25.8899 13.1371 23.0013C13.1371 20.111 11.1468 17.6933 8.46647 17.0326C8.46967 17.0333 8.47321 17.0341 8.47641 17.0348V3.40454C8.47641 2.63832 9.09833 2.01467 9.86324 2.01467H29.0057C29.771 2.01467 30.3926 2.63796 30.3926 3.40454L30.399 24.1103C30.3645 24.2547 30.246 24.4716 30.0662 24.7382H26.49C25.3075 24.7382 24.3471 25.6996 24.3471 26.8851V30.6319C24.091 30.8172 23.8817 30.9412 23.7365 30.9853H9.86324Z" fill="#EE3E38"/>
</svg>
